<svg xmlns="http://www.w3.org/2000/svg" viewBox="0 0 500 500"><g id="freepik--Plant--inject-5"><path d="M131.39,298.18c-3.32-3.26-7.62-7.19-12.7-5.79-4.78,1.32-6.6,6.54-7.46,10.88-1.1,5.6-2,11.26-2.85,16.9s-1.74,11.39-2.56,17.1q-.69,4.83-1.37,9.66c-.23,1.61-.45,3.22-.67,4.83s-.49,3.16-.57,4.76c0,.5.77.58.88.09.61-2.68.87-5.48,1.26-8.2l1.2-8.23c.79-5.45,1.62-10.89,2.44-16.34s1.67-10.88,2.54-16.32c.73-4.61,1.08-10.34,5.17-13.38a7.9,7.9,0,0,1,7.65-.72c2.69,1,4.84,2.95,6.94,4.86C131.36,298.34,131.45,298.24,131.39,298.18Z" style="fill:#263238"></path><path d="M126.84,294.85s-6.79-2.44-10.14,2.51.65,17.56,31.57,24.67a87.32,87.32,0,0,0-7.44-27.95C134.21,279.63,122.39,285.1,126.84,294.85Z" style="fill:#FFC727"></path><path d="M146.5,320a25,25,0,0,0-1.56-2.51c-.52-.79-1-1.59-1.57-2.38l-1.21-1.77c0-.14,0-.29.06-.44s.07-.53.11-.8c.07-.58.16-1.16.24-1.74s.18-1.15.29-1.72a9.08,9.08,0,0,1,.41-1.82c0-.09-.13-.14-.14,0a7.3,7.3,0,0,1-.27,1c-.08.26-.14.52-.21.78-.15.59-.29,1.18-.43,1.77s-.22,1.09-.31,1.64c0,.26-.09.53-.12.79-.55-.78-1.12-1.56-1.7-2.33-1.64-2.16-3.38-4.24-5.17-6.27l0-.06a55.81,55.81,0,0,1,.8-9.66c0-.08-.11-.13-.13,0a33.13,33.13,0,0,0-1.16,9.24c-.64-.72-1.29-1.44-2-2.15-1.51-1.61-3-3.21-4.61-4.77-.06-.06-.16,0-.1.1,2.6,2.8,5.08,5.72,7.49,8.7a50.64,50.64,0,0,0-5.65.21c-2.1.15-4.18.42-6.26.71a.07.07,0,1,0,0,.13,59.46,59.46,0,0,1,6.25-.56c2-.08,4,0,6,0,1.3,1.62,2.59,3.24,3.86,4.89h-.29c-.47,0-.94,0-1.42,0-.94,0-1.88.08-2.81.16a44,44,0,0,0-5.71.86.07.07,0,0,0,0,.13c1.9-.21,3.81-.39,5.72-.45.91,0,1.82,0,2.73,0h1.43a1.83,1.83,0,0,0,.78-.08c.83,1.08,1.66,2.16,2.48,3.25.66.86,1.31,1.73,1.94,2.61s1.24,1.88,2,2.72A.07.07,0,0,0,146.5,320Z" style="fill:#263238"></path><path d="M129.8,301.87a20.34,20.34,0,0,0-3.31-.16c-1.1,0-2.21,0-3.31.07a.07.07,0,1,0,0,.14c1.12-.08,2.24-.1,3.36-.08s2.16.12,3.24.09A0,0,0,0,0,129.8,301.87Z" style="fill:#263238"></path><path d="M139.5,304.36c.13-1.05.26-2.11.49-3.15a.07.07,0,1,0-.14,0c-.16,1-.36,2.07-.51,3.11q-.12.78-.21,1.56a7.4,7.4,0,0,0-.13,1.48.09.09,0,0,0,.18,0,8.94,8.94,0,0,0,.16-1.47C139.39,305.37,139.44,304.87,139.5,304.36Z" style="fill:#263238"></path><path d="M137.47,292.66c-.27,1-.54,2.07-.73,3.12-.1.53-.18,1.06-.25,1.6a6.27,6.27,0,0,0-.1,1.56s.07,0,.08,0a8.16,8.16,0,0,0,.24-1.48c.07-.52.15-1,.24-1.54.19-1.08.38-2.15.65-3.21C137.62,292.63,137.49,292.58,137.47,292.66Z" style="fill:#263238"></path><path d="M92.09,360.85c-.17-1.94-.36-3.89-.57-5.83q-.6-5.79-1.39-11.54c-.52-3.82-1-7.66-1.62-11.47a28.91,28.91,0,0,0-1.18-5.21,4.94,4.94,0,0,0-2.89-3.26c-3.64-1.25-6.09,2.52-7.56,5.19a.07.07,0,1,0,.12.06c.88-1.26,3.31-4.81,6.07-4.64,1.86.11,3.35,1.42,4.24,6.05,2.22,11.54,4.22,34.95,4.45,36.48.13.81.7.78.71-.09C92.48,364.67,92.25,362.76,92.09,360.85Z" style="fill:#263238"></path><path d="M77.86,327.29S81,316.07,74,321.68C62.31,331,61.9,351.35,61.9,351.35s20.8-12.08,23.38-20.05C89.14,319.43,77.86,327.29,77.86,327.29Z" style="fill:#FFC727"></path><path d="M81.8,332.8c-1.63.33-3.29.55-4.94.79l-2.34.33-1.59.19c1.55-2.14,3.11-4.26,4.6-6.44.06-.09-.07-.17-.14-.1a46.09,46.09,0,0,0-3.48,4c-.3-.87-.61-1.74-.92-2.61s-.73-2-1-3c0-.09-.15-.05-.13,0,.28,1,.48,2.08.76,3.11s.57,2,.92,2.95c-.76,1-1.49,2-2.2,3-.36-1-.8-2-1.12-3a.07.07,0,1,0-.13,0c.37,1.14.57,2.32.92,3.47-.47.7-1,1.39-1.41,2.1-.84,1.3-1.63,2.62-2.4,3.95a.31.31,0,0,0-.19.31c-1.31,2.28-2.56,4.58-3.79,6.91,0,.08.08.15.12.07,1.23-2.3,2.61-4.54,4-6.74h0a3.42,3.42,0,0,1,.68-.13l.72-.16c.54-.11,1.07-.25,1.6-.39,1.06-.26,2.1-.51,3.17-.69.09,0,.05-.15,0-.13-1.26.24-2.52.38-3.79.53-.6.07-1.2.14-1.8.24h-.08c.74-1.14,1.5-2.26,2.27-3.38s1.53-2.18,2.31-3.26c.72-.1,1.44-.29,2.15-.43l2.42-.47c1.61-.31,3.21-.67,4.83-.94C81.93,332.92,81.89,332.79,81.8,332.8Z" style="fill:#263238"></path><path d="M69.3,333.91c-.1-.3-.19-.6-.28-.89a17.43,17.43,0,0,1-.48-1.89c0-.08-.15,0-.13,0,.13.64.28,1.27.43,1.9a12.12,12.12,0,0,0,.54,1.87.13.13,0,0,0,.24-.07C69.53,334.54,69.4,334.23,69.3,333.91Z" style="fill:#263238"></path><path d="M83.93,330.2c-1,.15-1.91.21-2.86.3s-1.91.21-2.86.36a0,0,0,0,0,0,.08c1-.07,1.91-.14,2.86-.26s1.9-.27,2.86-.34C84,330.34,84,330.19,83.93,330.2Z" style="fill:#263238"></path><path d="M98.9,346.64c-.37-8.27-.9-16.52-1.73-24.75-.41-4.1-.87-8.2-1.45-12.28a89,89,0,0,0-2.37-11.89,23,23,0,0,0-3.95-8.38,9,9,0,0,0-8-3.48c-3.62.44-6.53,2.72-9.05,5.2-2.82,2.78-5.41,5.81-8,8.78-.66.75-1.32,1.51-2,2.27-.06.07,0,.17.1.1,2.56-2.94,5.22-5.8,8-8.53,2.57-2.53,5.22-5.29,8.78-6.33a9.07,9.07,0,0,1,5.11-.12,8,8,0,0,1,3.48,2.21,18.17,18.17,0,0,1,3.93,7.64c2.23,7.6,3,15.57,3.85,23.42s1.4,16,1.81,24,.71,16.1,1.49,24.12c.09,1,.22,2,.35,3,.08.66,1.11.66,1.06,0C99.65,363.24,99.27,355,98.9,346.64Z" style="fill:#263238"></path><path d="M71.9,292s4.72-8.73-.86-11.53-24.25,18-29.7,48.5c0,0,30.15-13.34,40.39-26.63S80.36,286.07,71.9,292Z" style="fill:#FFC727"></path><path d="M76.33,299.06c-3.39,0-6.77-.26-10.16-.23.64-.73,1.27-1.46,1.91-2.18a32.15,32.15,0,0,0,2.65-3.08c0-.07,0-.17-.12-.12A24.94,24.94,0,0,0,68,296l-2.53,2.72c-1.29,1.4-2.56,2.83-3.83,4.25,0-.14,0-.27,0-.41,0-.59,0-1.19,0-1.78l0-3.45c0-2.33,0-4.67.18-7,0-.09-.13-.09-.14,0-.16,2.34-.4,4.66-.52,7,0,1.14-.08,2.29-.09,3.44,0,.6,0,1.19,0,1.78,0,.33,0,.67,0,1l-.6.67c-2.7,3.09-5.28,6.28-7.78,9.54,0-.18,0-.37,0-.54l-.12-1.08c-.09-.78-.2-1.55-.31-2.32s-.23-1.46-.35-2.18-.33-1.64-.4-2.46c0-.1-.15-.08-.13,0a22.66,22.66,0,0,1,.28,2.48L51.9,310c.06.74.13,1.49.21,2.23,0,.36.07.72.11,1.08,0,.18,0,.36.06.54a1,1,0,0,0,.15.42c-.43.56-.87,1.12-1.29,1.69-1.71,2.26-3.39,4.55-5.07,6.83,0,.07,0,.17.1.1,1.59-2.07,3.23-4.11,4.89-6.13,1.24.06,2.5,0,3.74-.06l3.92,0a.07.07,0,0,0,0-.14c-1.31,0-2.61.05-3.92.05s-2.41-.05-3.6,0q2.19-2.66,4.41-5.29c.53-.64,1.08-1.28,1.62-1.92a7.61,7.61,0,0,0,1.51.05h1.78c1.12,0,2.23,0,3.34-.05,2.3,0,4.61-.11,6.91-.11.09,0,.08-.14,0-.14-2.3,0-4.6-.13-6.91-.19l-3.34-.08-1.79,0c-.33,0-.68,0-1,0l3.8-4.51a.11.11,0,0,0,.07-.08c1.24-1.45,2.47-2.91,3.72-4.36l.52-.59c3.51.11,7-.12,10.53-.05A.07.07,0,0,0,76.33,299.06Z" style="fill:#263238"></path><path d="M74.6,305.05h-.82a.06.06,0,1,0,0,.12h.82A.07.07,0,0,0,74.6,305.05Z" style="fill:#263238"></path><path d="M72.77,305.06,69.52,305l-1.63-.05a5.94,5.94,0,0,0-1.52,0c-.05,0,0,.08,0,.1a5.85,5.85,0,0,0,1.51.11l1.63,0h3.26C72.87,305.2,72.86,305.06,72.77,305.06Z" style="fill:#263238"></path><path d="M63.29,315.24a45.06,45.06,0,0,0-6.66-.61s0,.05,0,.05c2.21.21,4.43.33,6.63.69C63.35,315.39,63.38,315.25,63.29,315.24Z" style="fill:#263238"></path><path d="M54.23,305.54c0-.2,0-.39-.07-.59-.06-.43-.12-.87-.19-1.3-.13-.83-.28-1.66-.44-2.48,0-.08-.14-.06-.13,0,.1.85.19,1.71.27,2.56,0,.42.07.84.11,1.26a3.71,3.71,0,0,0,.17,1.2c.06.13.26.07.29,0A1.62,1.62,0,0,0,54.23,305.54Z" style="fill:#263238"></path><path d="M105,280.73c-1.08-2-2.45-4.66-5.14-4.49-2.23.14-3.23,2.41-3.71,4.28-1.46,5.81-1.57,11.93-1.85,17.87-.61,12.57-1.15,25.15-1.23,37.73q0,5.24,0,10.47c0,3.56,0,7.13.25,10.68a.26.26,0,0,0,.52,0c0-3-.08-6.09-.1-9.13s0-5.94.06-8.91q.15-9,.48-18c.22-6,.49-11.95.74-17.92.13-3,.25-6,.39-9s.25-5.78.58-8.66c.19-1.61.43-3.22.76-4.81a6.72,6.72,0,0,1,1.39-3.22,3,3,0,0,1,3.94-.29,8.33,8.33,0,0,1,2.78,3.48C104.92,280.89,105,280.81,105,280.73Z" style="fill:#263238"></path><path d="M104.27,279.78s-2.21-7.83,2.68-3.92c8.15,6.51,8.44,20.67,8.44,20.67s-14.48-8.41-16.29-14C96.42,274.3,104.27,279.78,104.27,279.78Z" style="fill:#FFC727"></path><path d="M112.35,290.73l-.42-.64a3.75,3.75,0,0,0,0-.67c0-.34,0-.67,0-1,0-.66,0-1.32.07-2a.07.07,0,0,0-.14,0c0,.65-.06,1.3-.08,1.95l0,1q0,.19,0,.42c-.57-.88-1.15-1.76-1.76-2.62-.17-.25-.36-.49-.53-.74a14.47,14.47,0,0,1,0-2.55q0-1.37.06-2.73c0-.09-.14-.08-.14,0,0,.94-.08,1.89-.12,2.83a17,17,0,0,0-.06,2c-1.4-1.9-2.88-3.73-4.39-5.56,0-.06-.15,0-.1.09.93,1.18,1.82,2.39,2.69,3.61-1.7-.4-3.44-.63-5.17-.88a.07.07,0,0,0,0,.14c1.83.27,3.63.73,5.44,1.13h0c.69,1,1.38,2,2.06,2.94.28.4.55.81.82,1.21h-.08l-.56-.07-1.2-.12-2.51-.15c-.09,0-.09.14,0,.14.83,0,1.64.08,2.46.17l1.3.16.56.06.17,0c.46.68.93,1.36,1.39,2.05.82,1.21,1.55,2.5,2.43,3.67,0,.07.14,0,.11-.07A39.1,39.1,0,0,0,112.35,290.73Z" style="fill:#263238"></path><path d="M108.74,281.9V281a13.56,13.56,0,0,1,.08-1.91c0-.1-.14-.12-.14,0,0,.63-.07,1.27-.1,1.9,0,.32,0,.63,0,.95v.44a1.35,1.35,0,0,0,0,.45.06.06,0,0,0,.12,0,1.18,1.18,0,0,0,0-.42Z" style="fill:#263238"></path><path d="M107,285.13c-.54-.09-1.09-.12-1.64-.16s-1.19-.1-1.79-.18a.07.07,0,1,0,0,.14c1.14.07,2.28.27,3.42.31C107,285.25,107,285.15,107,285.13Z" style="fill:#263238"></path><path d="M111.5,285.18c0,.06,0,.23,0,.3v.8c0,.19,0,.37,0,.55a1.29,1.29,0,0,0,0,.48,0,0,0,0,0,.06,0,.58.58,0,0,0,0-.23v-.8c0-.18,0-.36,0-.55v-.25c0-.08,0-.24,0-.3S111.4,285.05,111.5,285.18Z" style="fill:#263238"></path><path d="M112.55,320.65c-3-2.29-5.78-5.57-9.88-5.73-3.38-.14-5.75,2.41-7.11,5.24a31,31,0,0,0-1.66,4.68q-.91,3.21-1.72,6.45c-1.06,4.25-2,8.53-2.72,12.85-.41,2.41-.79,4.82-1.1,7.24a64,64,0,0,0-.71,7.42.39.39,0,0,0,.76.09c.41-2,.58-4.12.88-6.17s.62-4.12,1-6.17c.7-4.1,1.5-8.19,2.43-12.25.87-3.83,1.73-7.73,3-11.46.89-2.68,2.31-5.8,5.2-6.76,4.4-1.47,8.39,2.26,11.61,4.67C112.53,320.81,112.63,320.7,112.55,320.65Z" style="fill:#263238"></path><path d="M109.4,318.46s-2.81-8,1.25-9.59c6.09-2.36,22,15.59,18.91,43.09,0,0-12.31-6.78-21.41-14.41s-11.41-17.6-7.41-20.17S109.4,318.46,109.4,318.46Z" style="fill:#FFC727"></path><path d="M127.72,346.07a21.16,21.16,0,0,0-1.48-2.78c-.52-.94-1-1.88-1.59-2.81-1.06-1.8-2.11-3.62-3.2-5.41-.17-.29-.35-.58-.53-.87a3,3,0,0,1,.07-.32l.18-.8c.13-.6.24-1.2.35-1.8.22-1.18.42-2.37.74-3.52,0-.09-.12-.12-.14,0-.25,1.18-.62,2.33-1,3.49-.17.56-.35,1.13-.5,1.7l-.15.59c-1.31-2.15-2.64-4.28-4.08-6.35a2.75,2.75,0,0,0,.14-.88c0-.4.1-.8.14-1.2.11-.91.21-1.81.35-2.71a52,52,0,0,1,1-5.27c0-.09-.11-.11-.14,0-.43,1.73-.91,3.47-1.24,5.22-.16.86-.31,1.73-.43,2.6-.06.43-.1.87-.15,1.3,0,.13,0,.26,0,.4-.44-.63-.88-1.25-1.34-1.86-1.41-1.85-2.87-3.65-4.34-5.45,0-.07-.17,0-.11.08a96,96,0,0,1,6.92,10.11l1.2,1.94-.4-.05c-.51-.06-1-.1-1.55-.14-1-.1-2.07-.19-3.11-.27-2.07-.17-4.15-.3-6.22-.52-.09,0-.12.13,0,.14,2.1.24,4.19.58,6.28.87,1,.15,2,.29,3.08.42a12.21,12.21,0,0,0,2.37.24l2.45,4a5.06,5.06,0,0,0-.55,0h-3c-1.33,0-2.67,0-4,0-.09,0-.08.14,0,.14,1.35,0,2.7.09,4.06.16l1.92.11,1,.07a2,2,0,0,0,.84,0l2.09,3.38c.63,1,1.28,2.07,1.93,3.1a26.75,26.75,0,0,0,2.09,3.14C127.64,346.2,127.75,346.15,127.72,346.07Z" style="fill:#263238"></path><path d="M121.85,323.84a19.21,19.21,0,0,1-.55,2.61c-.23.89-.49,1.78-.77,2.65a.08.08,0,1,0,.16,0c.27-.86.52-1.74.73-2.62s.35-1.78.57-2.67C122,323.78,121.86,323.75,121.85,323.84Z" style="fill:#263238"></path><path d="M112.81,329.21a1.09,1.09,0,0,0-.68-.25L111,328.8c-.72-.1-1.44-.18-2.16-.26-1.5-.18-3-.32-4.5-.51-.09,0-.12.13,0,.14,1.42.17,2.82.38,4.24.57.69.09,1.38.19,2.08.27l1,.11a3.38,3.38,0,0,1,1.14.2C112.81,329.35,112.85,329.26,112.81,329.21Z" style="fill:#263238"></path><path d="M121.83,341.3c-.71-.06-1.42-.08-2.13-.1l-1.08,0-.51,0a3.71,3.71,0,0,1-.67,0c-.1,0-.11.16,0,.14a3.32,3.32,0,0,1,.63,0l.56,0,1.07.07c.71,0,1.42.08,2.13.09C121.91,341.46,121.92,341.31,121.83,341.3Z" style="fill:#263238"></path><path d="M126.17,338.23c.08-.4.16-.81.23-1.21.15-.79.29-1.59.44-2.38a.07.07,0,0,0-.14,0c-.17.77-.35,1.54-.52,2.31-.09.39-.17.77-.25,1.16l-.12.54a1.56,1.56,0,0,0-.06.57c0,.06.11.11.15,0A2.91,2.91,0,0,0,126.17,338.23Z" style="fill:#263238"></path><polygon points="115.31 363.74 114.77 375.11 113.14 408.66 79.75 408.66 78.12 375.11 77.57 363.74 115.31 363.74" style="fill:#37474f"></polygon><polygon points="115.31 363.74 114.77 375.11 78.12 375.11 77.57 363.74 115.31 363.74" style="fill:#263238"></polygon><rect x="75.01" y="355.7" width="42.86" height="11.37" style="fill:#37474f"></rect></g><g id="freepik--Floor--inject-5"><polygon points="39.98 408.94 92.48 408.7 144.99 408.61 250 408.44 355.01 408.61 407.51 408.7 460.02 408.94 407.51 409.19 355.01 409.27 250 409.44 144.99 409.27 92.48 409.19 39.98 408.94" style="fill:#263238"></polygon></g><g id="freepik--Shadow--inject-5"><ellipse cx="250" cy="438.3" rx="191.01" ry="18.34" style="fill:#ebebeb"></ellipse></g><g id="freepik--Character--inject-5"><path d="M191.67,354c0-45.08,29.38-81.74,65.49-81.74s65.5,36.66,65.5,81.74-29.38,81.74-65.5,81.74S191.67,399.07,191.67,354Zm6.56,0c0,41.45,26.44,75.18,58.93,75.18S316.1,395.45,316.1,354s-26.44-75.19-58.94-75.19S198.23,312.54,198.23,354Z" style="fill:#263238"></path><path d="M194.06,354c0-40,26-72.46,57.94-72.46S309.94,314,309.94,354s-26,72.46-57.94,72.46S194.06,394,194.06,354Zm4.68,0c0,37.37,23.89,67.78,53.26,67.78s53.25-30.41,53.25-67.78S281.36,286.22,252,286.22,198.74,316.62,198.74,354Z" style="fill:#c7c7c7"></path><path d="M244.83,354c0,6.54,4.21,11.84,9.4,11.84s9.39-5.3,9.39-11.84-4.2-11.85-9.39-11.85S244.83,347.45,244.83,354Z" style="fill:#c7c7c7"></path><path d="M241.82,354c0,6.54,4.21,11.84,9.4,11.84s9.39-5.3,9.39-11.84-4.2-11.85-9.39-11.85S241.82,347.45,241.82,354Z" style="fill:#dbdbdb"></path><rect x="166.16" y="351.66" width="85.06" height="4.68" style="fill:#c7c7c7"></rect><path d="M337.52,422.57c0,8.51,5.47,15.41,12.22,15.41S362,431.08,362,422.57s-5.47-15.41-12.22-15.41S337.52,414.06,337.52,422.57Z" style="fill:#c7c7c7"></path><ellipse cx="345.82" cy="422.57" rx="12.22" ry="15.41" style="fill:#dbdbdb"></ellipse><rect x="250.9" y="245.43" width="96.77" height="37.36" transform="translate(598.57 528.23) rotate(180)" style="fill:#a6a6a6"></rect><path d="M266.58,372.68h81.09V368H266.58a13.31,13.31,0,0,1-13.3-13.3v-203a18,18,0,0,0-18-18H224.37v4.68H235.3a13.32,13.32,0,0,1,13.3,13.31v203A18,18,0,0,0,266.58,372.68Z" style="fill:#c7c7c7"></path><path d="M345.33,407.16H350V243.51a16.2,16.2,0,0,0-16.19-16.19H250.94V232h82.88a11.52,11.52,0,0,1,11.51,11.51Z" style="fill:#c7c7c7"></path><rect x="209.87" y="131.21" width="29" height="9.31" transform="translate(448.74 271.73) rotate(180)" style="fill:#263238"></rect><rect x="166.16" y="162.27" width="82.68" height="113.26" transform="translate(415 437.8) rotate(180)" style="fill:#37474f"></rect><path d="M221.78,83.34c15.18,7.17,24.67,36.59,17,60.5-8.27,25.84-34.73,30.78-49.94,25.26-16.14-5.86-21-23.7-13.69-34.38,7.09-10.3,18.74-13.36,21.9-22.78,1.51-4.51,1.31-12.84,3.26-19.6C202.5,84.8,212.61,79,221.78,83.34Z" style="fill:#263238"></path><path d="M227.64,87.44a64.66,64.66,0,0,1,13.55,22.14A51.76,51.76,0,0,1,244,122.36a49.67,49.67,0,0,1,.14,6.57,59.33,59.33,0,0,1-.71,6.52c-1.46,8.59-5,17.05-11,23.45a37.11,37.11,0,0,1-10.5,7.78,37.74,37.74,0,0,1-12.49,3.61,38,38,0,0,0,22.47-11.87c5.83-6.38,9.27-14.64,10.64-23.12a60.37,60.37,0,0,0,.74-6.42,49.59,49.59,0,0,0-.09-6.45,54.54,54.54,0,0,0-2.69-12.61A64.87,64.87,0,0,0,235.14,98,66.84,66.84,0,0,0,227.64,87.44Z" style="fill:#263238"></path><path d="M198.77,101a41.45,41.45,0,0,1-1,7.16,23.42,23.42,0,0,1-2.85,6.7,19.45,19.45,0,0,1-5.05,5.3c-2,1.39-3.92,2.76-5.8,4.25a35.87,35.87,0,0,0-9.54,10.48,21.43,21.43,0,0,0-2.5,13.8,20.79,20.79,0,0,1-.34-7.21,18.92,18.92,0,0,1,.81-3.56,21.66,21.66,0,0,1,1.42-3.37c2.26-4.35,5.82-7.85,9.58-10.86,1.9-1.51,3.91-2.87,5.88-4.23a19.85,19.85,0,0,0,4.93-5C197,110.49,198.1,105.69,198.77,101Z" style="fill:#263238"></path><path d="M393.18,416.41c-2.68.9-81.36.39-84.27-1.48-.35-.21-.45-7.32-.43-17.06v-.19c0-6.17-1.76-58.91-1.76-58.91L356,338.5l2.93,51.93s10.61,4.46,19.85,8.89c0,0,0,0,0,0,5.7,2.71,10.65,5.19,11.79,6.1C393.51,407.83,395.86,415.54,393.18,416.41Z" style="fill:#d3766a"></path><path d="M393.18,416.41c-2.68.9-81.36.39-84.27-1.49-.33-.19-.44-6.76-.43-15.91,6,.9,60.52,8.94,70.86,8.15,11-.83-6.56-10.48-6.56-10.48h.3c1.88.86,3.8,1.76,5.66,2.65,0,0,0,0,0,0,5.71,2.72,10.66,5.19,11.8,6.1C393.51,407.83,395.85,415.54,393.18,416.41Z" style="fill:#FFC727"></path><path d="M358.64,416.79c-22.55-.19-48.09-.81-49.73-1.87-.34-.2-.45-7.31-.43-17.06v-.18c0-6.17-1.77-58.9-1.77-58.9l3.87,0Z" style="fill:#263238"></path><path d="M234,187.43l7.76,21.31s79.54,10.16,97.13,33.76c20.18,27.09,25.38,145.36,25.38,145.36l-58.16-1.12S298.92,282.08,293,274s-88.85-16-104.85-28.38-4.08-58.78-4.08-58.78Z" style="fill:#455a64"></path><path d="M306.82,376.1a49,49,0,0,1,5.28-.27l5.22-.09c3.57-.06,7.15,0,10.72,0,7.14,0,14.28.09,21.42.26,2,0,4,.06,6,.15s4,.11,6,.38c.08,0,.12.15,0,.16a96.33,96.33,0,0,1-10.48.37c-3.57,0-7.14.07-10.71.06q-10.71,0-21.43-.16c-2,0-4-.11-6-.17a54.76,54.76,0,0,1-6-.35C306.69,376.42,306.6,376.12,306.82,376.1Z" style="fill:#263238"></path><path d="M191.53,238c12.21,5.29,25.22,8.5,38.27,10.95s26.38,4.15,39.58,6.14c6.63,1,13.38,1.87,19.8,3.86,2.78.86,5.72,1.87,8,3.79s3.3,4.78,3.89,7.67c1.4,6.87,2.39,13.84,3.44,20.76s2,14.11,2.95,21.18c1.85,14.23,3.4,28.5,4.95,42.77.19,1.72.35,3.44.52,5.16,0,.18-.25.25-.28.07-1.82-14.05-3.44-28.11-5.28-42.16s-3.85-28.07-6.21-42c-.52-3.09-.8-6.45-2.07-9.36s-3.74-4.61-6.58-5.79c-6.2-2.56-13-3.53-19.55-4.58-13-2.07-26.09-3.71-39.05-6.1A209.17,209.17,0,0,1,195.94,240c-1.5-.58-3-1.19-4.46-1.82C191.38,238.11,191.43,238,191.53,238Z" style="fill:#263238"></path><path d="M352.58,417.12c-2.68.89-81.36.39-84.27-1.49-.34-.2-.45-7.32-.43-17.06v-.19c0-6.17-1.76-58.9-1.76-58.9l49.24-.27,2.93,51.93s10.61,4.46,19.86,8.89l0,0c5.7,2.72,10.65,5.2,11.79,6.11C352.91,408.54,355.26,416.25,352.58,417.12Z" style="fill:#d3766a"></path><path d="M352.58,417.12c-2.67.9-81.36.38-84.27-1.49-.34-.2-.45-7-.43-16.43,10,1.47,59.8,8.71,69.64,8,10.69-.82-5.74-10-6.53-10.46,2.34,1.07,4.79,2.2,7.16,3.33,0,0,0,0,0,0,5.7,2.71,10.65,5.18,11.78,6.09C352.91,408.54,355.26,416.25,352.58,417.12Z" style="fill:#FFC727"></path><path d="M319.91,388.52l-56.79-.18s6.51-111.5-4.11-119.26c-9.24-6.75-56.27-8.42-79.62-25.3-19-13.7-2.17-57.05-2.17-57.05l51,1s6.87,15.93,8,20.75c0,0,55.36,15.13,70.77,34.66C324.28,265,319.91,388.52,319.91,388.52Z" style="fill:#455a64"></path><path d="M264.44,378.63a47.35,47.35,0,0,1,5.19-.27c1.71-.05,3.43-.06,5.14-.1,3.51-.07,7,0,10.53,0,7,0,14,.07,21.06.23,2,0,3.93.07,5.9.15s3.95.11,5.9.37c.08,0,.12.15,0,.16a93.05,93.05,0,0,1-10.3.38c-3.51,0-7,.08-10.53.08q-10.53,0-21.06-.14c-2,0-3.93-.1-5.9-.16a52.64,52.64,0,0,1-5.9-.35C264.31,379,264.23,378.65,264.44,378.63Z" style="fill:#263238"></path><path d="M236.24,208.45c14.45,4.62,28.69,9.44,42.52,15.66,6.23,2.8,12.59,5.56,18.29,9.37a38.17,38.17,0,0,1,12.68,13.71,59.83,59.83,0,0,1,5.73,18c1.19,6.82,1.78,13.75,2.43,20.64,1.45,15.51,2.44,31.06,2.79,46.64s.12,31.24-.63,46.86c-.09,2-.24,3.93-.34,5.89a.11.11,0,1,1-.21,0c.58-15.38.47-30.82.08-46.2s-1.19-30.79-2.47-46.13c-.61-7.35-1.26-14.71-2.23-22a77.3,77.3,0,0,0-4.28-18.34,36.55,36.55,0,0,0-10.86-15.18c-5.1-4.12-11.06-7-17-9.75-13.6-6.23-45.11-18-46.86-18.65C235,208.62,235.34,208.16,236.24,208.45Z" style="fill:#263238"></path><path d="M180.12,195.92c.51-2,1.08-4,1.74-5.91a.17.17,0,0,1,.33.1,109.81,109.81,0,0,0-4.3,24.52,50.62,50.62,0,0,0,.44,12,21.35,21.35,0,0,0,5.06,10.2c5,5.25,12,8.66,18.83,10.8,7.75,2.46,15.76,4,23.67,5.82,8.21,1.91,34.36,8.76,36.1,9.51a6,6,0,0,1,3.24,2.93,26.61,26.61,0,0,1,1.54,5.18c3.88,15.89,4.24,31,4.31,47.28.08,17.2-.22,34.38-1,51.57-.1,2.08-.19,4.15-.26,6.23,0,.14-.21.13-.21,0,.25-8.62.24-17.26.26-25.89S270,333,270,324.35c0-16.5,0-31.85-3.11-48.11-.4-2.06-2.1-9.91-3.36-11.22s-27.75-8.12-36-10c-7.89-1.83-15.89-3.34-23.67-5.6-6.84-2-14.29-5.32-19.79-10a21.85,21.85,0,0,1-5.49-8.31A27.23,27.23,0,0,1,176.91,220,106.29,106.29,0,0,1,180.12,195.92Z" style="fill:#263238"></path><path d="M183.63,207c3.81-1.25,8.39-1.78,11.45-4.6a10.45,10.45,0,0,0,2.79-4.92,24.48,24.48,0,0,0,.63-3.29,34.88,34.88,0,0,0,.42-3.54c0-.13.21-.12.21,0,0,1.3.26,2.59.24,3.89A17.25,17.25,0,0,1,199,198a11.11,11.11,0,0,1-2.78,5.45,11.32,11.32,0,0,1-5.52,2.74,36.55,36.55,0,0,1-7,1.21C183.43,207.4,183.44,207.07,183.63,207Z" style="fill:#263238"></path><path d="M221.84,140.15c9.94,9,37.91,22.07,48,19.65,7.32-1.75,25.55-29.94,30.17-38.9,4.46-8.65-22.61-18.06-25.38-13.05-4.48,8.09-10.9,25.55-13.54,26.86-1.85.92-14.85-.5-34.85-4C214.06,128.61,215.91,134.75,221.84,140.15Z" style="fill:#d3766a"></path><path d="M307.91,108.5c-1.87,5.75-10.3,16-13.28,17.71s-20.91-12.06-20.92-15.58,7.78-22.39,12.94-25.77S309.85,102.55,307.91,108.5Z" style="fill:#d3766a"></path><path d="M250.77,133.26l-.68,24.92s-15.94-8.31-26.62-15.61-14.29-14.74-1-13.43S250.77,133.26,250.77,133.26Z" style="fill:#FFC727"></path><path d="M233.8,130.52l-.74,18.13.93.55.75-18.55Zm4.75.69-.82,20.17.93.53.82-20.55Zm4.74.76-.9,22.05.92.51.92-22.4Zm4.75.8-1,23.8.92.51,1-24.14Z" style="fill:#030402;opacity:0.1"></path><path d="M245.71,133.9c-.19,1.79-.19,3.6-.22,5.4s-.06,3.52-.07,5.27c0,3.57-.07,7.12.19,10.68a.07.07,0,1,0,.14,0c.29-3.55.28-7.11.29-10.67,0-1.76,0-3.52,0-5.28s0-3.61-.17-5.4A.08.08,0,0,0,245.71,133.9Z" style="fill:#263238"></path><path d="M250.39,147l-.3,11.14s-16-8.3-26.62-15.61c-8.5-5.82-12.52-11.71-7.11-13.22Z" style="opacity:0.1"></path><path d="M239.25,202.57,235.1,176s6.65-9.13,4.19-16.48c-1.25-3.73-13.19-25.92-18.75-31-5.21-4.74-14.07-1.41-17.33,1.64-18.09,16.93-23.87,36.79-31.72,72Z" style="fill:#FFC727"></path><path d="M227.27,176.24a38.06,38.06,0,0,0-9.77,1.41c-3.2.83-6.32,2-9.42,3.11-1.78.65-3.57,1.26-5.35,1.91,0,0,0,.08,0,.07,3.22-.73,6.37-1.81,9.52-2.8s6.3-1.88,9.51-2.64a44.32,44.32,0,0,1,5.5-.87A.1.1,0,0,0,227.27,176.24Z" style="fill:#263238"></path><path d="M233,178a30.23,30.23,0,0,0-10.25.69,0,0,0,0,0,0,.07c1.7-.17,3.39-.33,5.1-.43s3.43-.16,5.14-.23A.05.05,0,0,0,233,178Z" style="fill:#263238"></path><path d="M240.12,162.34a19.47,19.47,0,0,0-2.07-6.79c-1.11-2.28-2.41-4.47-3.67-6.66l-.49-.85c-.08-.3-.2-.61-.31-.9s-.25-.7-.39-1c-.27-.68-.55-1.36-.83-2,0,0-.06,0-.05,0,.23.73.46,1.44.71,2.16.1.29.21.57.32.86L229.8,141s-.08,0-.06,0c1.24,2.35,2.47,4.7,3.73,7s2.45,4.43,3.58,6.69a22.35,22.35,0,0,1,2.33,6.64,15.54,15.54,0,0,1-.69,7,44.27,44.27,0,0,1-3.32,7.32.09.09,0,0,0,.16.1C238.23,171.92,240.56,167.23,240.12,162.34Z" style="fill:#263238"></path><rect x="264.94" y="90.21" width="106.05" height="70.13" style="fill:#FFC727"></rect><polygon points="305.7 160.34 330.23 160.34 317.96 175.28 305.7 160.34" style="fill:#FFC727"></polygon><g id="freepik--xsrjp0--inject-5"><path d="M313,142.17c-1-.61-1.82-1.49-3.13-1.36-.49.05-.39-.36-.39-.64l-.06-14.67c0-.35,0-.65.41-.84,3.73-1.9,5.33-5.61,7.61-8.79a14.59,14.59,0,0,0,2.68-11.1c-.16-1.1.35-1.6,1.34-1.83a2.45,2.45,0,0,1,2.79.87,19.83,19.83,0,0,1,2.16,6.41c.22,1.85-.44,3.66-.67,5.49-.16,1.35-.47,2.68-.72,4,.33.23.71.11,1.06.11l12.4,0c1.74,0,2.59.49,2.84,1.64a3.32,3.32,0,0,1-1.79,3.59c-.31.16-.87,0-.9.5s.54.44.82.64c1.5,1,1.23,3.14-.5,4.37-.41.29-1.22.16-1.24.77s.75.48,1.09.82c1.21,1.19.62,3.42-1.18,4.32a5.15,5.15,0,0,0-.72.29c-.21.14-.41.29,0,.57,1.79,1.27,1.76,3,0,4.36l-.53.39a3.56,3.56,0,0,1-2.18.48l-19.44.07A2.31,2.31,0,0,1,313,142.17Z" style="fill:#fff;fill-rule:evenodd"></path><path d="M294.56,133.6c0-3.1,0-6.21,0-9.32,0-.63.06-.94.83-.93,3.8,0,7.58,0,11.37,0,.75,0,.86.25.86.91q0,9.38.07,18.76c0,.79-.21,1-1,1-3.68,0-7.35,0-11,0-.91,0-1-.3-1-1.1C294.61,139.82,294.57,136.71,294.56,133.6Z" style="fill:#fff;fill-rule:evenodd"></path></g><path d="M200.6,147.13c1.79,12.71,13.09,51.4,23.52,54.63,9.23,2.85,33.06-2.72,43.92-5,3.95-.84-1.84-34.21-5.71-32.27-4.63,2.32-29.76,7.11-31,6.53s-10.46-14.4-21.65-31.1C199.12,124.13,199.48,139.17,200.6,147.13Z" style="fill:#d3766a"></path><path d="M258.57,166.83s10.37-6.6,17.35-10.6c3.9-2.23,10.92-5.46,14.53-5.79,5.4-.49,28.31.91,28.09,6.47-.19,5-19.72,1.34-19.72,1.34s20,2,18.68,8-22.86-1.09-22.86-1.09,20.54,2.5,18.16,8.49c-1.79,4.52-21.64-.82-21.64-.82s17.64,2.27,16,7c-1.82,5.22-20.45,1.44-20.45,1.44-6.21,11.33-13.46,14.69-19.44,15.56C265.88,197,258.57,166.83,258.57,166.83Z" style="fill:#d3766a"></path><path d="M292.88,157.24c14.87.34,22.06,5.06,21.84,5-5.11-2.05-13.47-3.46-15.81-3.82s-3.71-.7-6.05-1.06C292.8,157.32,292.82,157.24,292.88,157.24Z" style="fill:#263238"></path><path d="M290.49,165.54a50.77,50.77,0,0,1,17.71,2.78c.21.09.12.15-.11.11-3-.54-14.64-2.42-17.62-2.82C290.43,165.61,290.44,165.55,290.49,165.54Z" style="fill:#263238"></path><path d="M288,172.56a37.21,37.21,0,0,1,13.64,2.55c.22.07.08.18-.15.13-4.52-.93-8.06-1.7-13.5-2.52C287.85,172.7,287.85,172.55,288,172.56Z" style="fill:#263238"></path><path d="M224.83,161.24l-19,16.14s-4.47-17.41-6.17-30.24,1.42-20.47,9.33-9.7S224.83,161.24,224.83,161.24Z" style="fill:#FFC727"></path><path d="M215.32,146.48l-13.75,12,.21,1.07,14.07-12.24Zm2.67,4L202.67,163.8c.07.36.15.71.23,1.06l15.61-13.58Zm2.63,4.06-16.77,14.58c.07.35.15.7.23,1l17-14.82Zm2.58,4.06-18.12,15.76c.09.37.17.72.25,1l18.36-16C223.55,159.17,223.38,158.89,223.2,158.6Z" style="fill:#030402;opacity:0.1"></path><path d="M221.51,158c-1.49,1-2.87,2.18-4.27,3.3l-4.07,3.35c-2.74,2.28-5.49,4.54-8,7a.08.08,0,0,0,.1.12c2.9-2.07,5.61-4.37,8.34-6.66,1.35-1.13,2.69-2.26,4-3.41s2.76-2.32,4-3.61A.07.07,0,0,0,221.51,158Z" style="fill:#263238"></path><path d="M208.17,175.39c-.73.72-1.49,1.42-2.23,2.12l-.19.18-.08-.26c-.59-1.92-1.15-3.83-1.63-5.77s-1-3.87-1.36-5.83-.82-3.91-1.12-5.89S201,156,200.74,154c.47,1.94.9,3.89,1.34,5.83l1.3,5.83L206,177.34l-.27-.08C206.54,176.63,207.34,176,208.17,175.39Z" style="fill:#263238"></path><path d="M200.12,157.64c.43.82.8,1.62,1.18,2.43a26.56,26.56,0,0,1,1,2.49,8.86,8.86,0,0,1-1.51-2.28,9.44,9.44,0,0,1-.47-1.29A5.55,5.55,0,0,1,200.12,157.64Z" style="fill:#263238"></path><path d="M214,144.51c1.07,1.28,2.07,2.61,3,4s1.92,2.71,2.85,4.1,1.8,2.79,2.65,4.22a49.25,49.25,0,0,1,2.34,4.43l0,0,0,0-.52.41.44-.5v.07q-1.35-2.1-2.76-4.15L219.26,153c-.9-1.39-1.82-2.78-2.69-4.2S214.81,146,214,144.51Z" style="fill:#263238"></path><path d="M216.69,146.56a5.9,5.9,0,0,1,1.16,2,5.16,5.16,0,0,1,.35,2.27c-.16-.35-.28-.71-.42-1.05l-.4-1C217.14,148,216.88,147.31,216.69,146.56Z" style="fill:#263238"></path><path d="M273.18,87.65c4.23-2.41,9.29-8.05,12.84-8.75a4.17,4.17,0,0,1,4.55,2s1.52-3.71,4.84-3.81c1.71,0,3.3,2.64,3.3,2.64s1.35-2.91,4.31-2.82c2.36.08,3.6,2.76,3.6,2.76s2.6-2.2,5-1.35c4.83,1.72,6.32,22-.9,25.63-3.37,1.71-3.46-3.25-3.46-3.25s-1.59,7.16-5.75,7.58-3.9-6-3.9-6-1.59,6.93-5.95,6.93c-4.54,0-3.17-6.42-3.17-6.42s-2.72,4.72-6.05,4c-5.51-1.27.48-12-.9-16.34l-7.25.15Z" style="fill:#d3766a"></path><path d="M279.26,83.56c-4.21,1.93-6.3-1.06-10.72-.39-4.91.75-3.19,6.49,5.48,7.34l7.5-.16Z" style="fill:#d3766a"></path><path d="M306.88,80.05c0-.07.08-.1.1,0a35.16,35.16,0,0,1,.29,20.93c-.07.21-.45.19-.41-.06A72.4,72.4,0,0,0,306.88,80.05Z" style="fill:#263238"></path><path d="M298.75,79.61c0-.08.11-.1.14,0,2.14,6.75,2.25,15.57-1.1,22.86-.11.25-.47.35-.36.06C299.3,97.49,299.78,86.09,298.75,79.61Z" style="fill:#263238"></path><path d="M288.06,103.19c2.94-7.11,3.31-14.45,2.61-22,0-.1.13-.1.16,0,1.36,3.62,1.3,8.51.93,12.3a20.3,20.3,0,0,1-3.45,9.86C288.23,103.41,288,103.34,288.06,103.19Z" style="fill:#263238"></path><path d="M198.14,135.39s14.64,10.42,24.09,6.31c4.62-2,2.13-12.35,2.13-12.35s-8-3.63-14-2.71S198.14,135.39,198.14,135.39Z" style="fill:#d3766a"></path><path d="M207.86,129.67c.18,1.24,5.15,11.62,11.71,11,2.75-.26,1.76-10.91,1.76-10.91l3.45-10.7-12.92-10S207.8,129.15,207.86,129.67Z" style="fill:#d3766a"></path><path d="M224.77,119.06l-3.34,10.39a22.32,22.32,0,0,1-11.09-12.81c.82-4.08,1.52-7.54,1.52-7.54Z" style="fill:#263238"></path><path d="M238.52,102.26c2.43,18.26-8.23,21.77-12.17,22.29-3.58.47-15.81,1.62-20.11-16.29s3.43-24.81,11.55-26.32S236.1,84,238.52,102.26Z" style="fill:#d3766a"></path><path d="M232.68,99.35a10.88,10.88,0,0,1-1.28-.13,2.1,2.1,0,0,1-1.29-.4A.66.66,0,0,1,230,98a1.64,1.64,0,0,1,1.58-.55,2.4,2.4,0,0,1,1.6.7A.71.71,0,0,1,232.68,99.35Z" style="fill:#263238"></path><path d="M220.54,100.73a11.77,11.77,0,0,0,1.23-.39A2.05,2.05,0,0,0,223,99.7a.66.66,0,0,0-.08-.81,1.67,1.67,0,0,0-1.66-.22,2.39,2.39,0,0,0-1.42,1A.7.7,0,0,0,220.54,100.73Z" style="fill:#263238"></path><path d="M223.49,105.18c0-.05-.09.07-.08.12.2,1.26.21,2.73-.88,3.29,0,0,0,.08,0,.07C223.92,108.29,223.88,106.34,223.49,105.18Z" style="fill:#263238"></path><path d="M222.2,104c-2,.09-1.7,4.19.2,4.1S223.92,103.91,222.2,104Z" style="fill:#263238"></path><path d="M221.42,104.28c-.34.26-.66.7-1.09.78s-.9-.31-1.26-.69c0,0-.07,0-.07,0,.05.79.42,1.57,1.28,1.61s1.26-.7,1.39-1.5C221.7,104.38,221.55,104.17,221.42,104.28Z" style="fill:#263238"></path><path d="M230.93,103.93c0-.05.1,0,.11.1.05,1.28.33,2.72,1.51,3.06,0,0,0,.07,0,.07C231.13,107.07,230.78,105.14,230.93,103.93Z" style="fill:#263238"></path><path d="M232,102.52c2-.32,2.51,3.77.62,4.06S230.26,102.78,232,102.52Z" style="fill:#263238"></path><path d="M232.84,102.68c.35.18.72.54,1.1.52s.73-.5,1-1c0,0,.06,0,.07,0,.11.78,0,1.62-.79,1.86s-1.24-.4-1.52-1.16C232.62,102.85,232.7,102.61,232.84,102.68Z" style="fill:#263238"></path><path d="M224.5,115.34c.31.28.63.68,1.09.7a3.41,3.41,0,0,0,1.36-.37,0,0,0,0,1,.06.06,1.72,1.72,0,0,1-1.59.75,1.33,1.33,0,0,1-1-1.08C224.35,115.32,224.45,115.29,224.5,115.34Z" style="fill:#263238"></path><path d="M229.91,110s.45,1.88.53,2.77a4.85,4.85,0,0,1-4.84-1c-.08-.08,0-.19.13-.14a6.48,6.48,0,0,0,4,.74c0-.26-.87-3.19-.73-3.21a8,8,0,0,1,2.08.26c-.82-3.93-2.26-7.71-3-11.64,0-.14.18-.2.23-.08a65.38,65.38,0,0,1,3.78,12.4C232.2,110.59,230.28,110.1,229.91,110Z" style="fill:#263238"></path><path d="M229.21,112.78a4.59,4.59,0,0,1-1.75,1.58,2.13,2.13,0,0,1-1.26.18c-.93-.17-1-1-.91-1.74a5.1,5.1,0,0,1,.32-1.14A6.06,6.06,0,0,0,229.21,112.78Z" style="fill:#263238"></path><path d="M227.46,114.36a2.13,2.13,0,0,1-1.26.18c-.93-.17-1-1-.91-1.74A2.14,2.14,0,0,1,227.46,114.36Z" style="fill:#ff9abb"></path><path d="M226.65,85.46a8.16,8.16,0,0,1-.39,4.76c-2.11,4-7,2.79-8.77,4.35s-1.2,4.65-2.69,6.12c-2.06,2-4.74,1.13-5.11,2.54s-1.48,5.9-3.31,6.41-9.1-29.85,14.54-28.08c0,0,3.29-1.22,8.24,1.49s8,12.34,8,12.34a5.74,5.74,0,0,1-1.31-1c-1.11-1-1.52-2-2.34-2.67-1.27-1.07-2-.71-3.34-1.75A15.68,15.68,0,0,1,226.65,85.46Z" style="fill:#263238"></path><path d="M226.34,84.14a16.12,16.12,0,0,1,.56,3.64,6.57,6.57,0,0,1-.63,3.5,4.87,4.87,0,0,1-2.78,2c-1.14.38-2.39.45-3.62.89a3.82,3.82,0,0,0-1.63,1.14,4.89,4.89,0,0,0-.75,1.79,6.54,6.54,0,0,1-1.43,3.23,4.12,4.12,0,0,1-3.22,1.23c-1.19,0-2.5-.42-3.68.06,1.22-.39,2.42.08,3.66.22a4.45,4.45,0,0,0,3.55-1.18A6.57,6.57,0,0,0,218,97.26a4.49,4.49,0,0,1,.69-1.59,3.17,3.17,0,0,1,1.39-.93c1.1-.42,2.36-.52,3.57-.93a6.48,6.48,0,0,0,1.72-.87,3.84,3.84,0,0,0,1.3-1.44,6.92,6.92,0,0,0,.52-3.74A16.58,16.58,0,0,0,226.34,84.14Z" style="fill:#263238"></path><path d="M226.75,85.23a13,13,0,0,0,1,3.31,6.14,6.14,0,0,0,2.29,2.69,9.18,9.18,0,0,0,1.61.69,2.83,2.83,0,0,1,1.25.9,8.09,8.09,0,0,0,1,1.43,4,4,0,0,0,1.47.93,4.34,4.34,0,0,1-1.25-1.12,8.35,8.35,0,0,1-.82-1.48,3,3,0,0,0-1.41-1.17,8.61,8.61,0,0,1-1.53-.68,6.48,6.48,0,0,1-2.17-2.41A26.47,26.47,0,0,1,226.75,85.23Z" style="fill:#263238"></path><path d="M209.36,108s-4.28-5.56-6.82-4,.86,9.74,4,10.74a3.11,3.11,0,0,0,4.09-1.86Z" style="fill:#d3766a"></path><path d="M203.57,106.32a0,0,0,0,0,0,.08c2.19.78,3.41,2.71,4.29,4.74a1.72,1.72,0,0,0-2.59-.35c-.06,0,0,.13.06.11a1.93,1.93,0,0,1,2.14.57,9.7,9.7,0,0,1,1.09,1.66c.1.19.45.07.36-.15a.17.17,0,0,0,0,0C208.82,110.19,206.52,106.46,203.57,106.32Z" style="fill:#263238"></path><path d="M208,113.62a.73.73,0,1,1-1.46-.13.73.73,0,0,1,1.46.13Z" style="fill:#fff"></path><path d="M206.26,112.26a.54.54,0,0,1-.58.48.53.53,0,0,1-.48-.57.54.54,0,0,1,.58-.48A.53.53,0,0,1,206.26,112.26Z" style="fill:#fff"></path><path d="M202.69,105.67l-1.08-.19a.4.4,0,0,1-.32-.45h0a.4.4,0,0,1,.45-.32l1.08.2a.38.38,0,0,1,.31.45h0A.37.37,0,0,1,202.69,105.67Z" style="fill:#FFC727"></path><path d="M202.62,106.8l-1.09,0a.39.39,0,0,1-.4-.37h0a.39.39,0,0,1,.37-.41l1.1,0a.4.4,0,0,1,.4.38h0A.4.4,0,0,1,202.62,106.8Z" style="fill:#FFC727"></path><rect x="269.48" y="417.1" width="103.5" height="10.95" style="fill:#a6a6a6"></rect><rect x="163.63" y="245.49" width="96.92" height="37.36" transform="translate(424.17 528.35) rotate(180)" style="fill:#a6a6a6"></rect><path d="M179.46,372.73h81.09v-4.68H179.46a13.31,13.31,0,0,1-13.3-13.3v-203a18,18,0,0,0-18-18H137.25v4.68h10.92a13.31,13.31,0,0,1,13.3,13.3v203A18,18,0,0,0,179.46,372.73Z" style="fill:#c7c7c7"></path><path d="M258.2,421.15h4.69V243.57a16.22,16.22,0,0,0-16.19-16.2H163.82v4.69H246.7a11.52,11.52,0,0,1,11.5,11.51Z" style="fill:#c7c7c7"></path><rect x="122.74" y="131.27" width="29" height="9.31" transform="translate(274.49 271.85) rotate(180)" style="fill:#263238"></rect><path d="M105.65,354c0-45.08,29.38-81.74,65.49-81.74s65.49,36.66,65.49,81.74-29.38,81.74-65.49,81.74S105.65,399.07,105.65,354Zm6.55,0c0,41.45,26.44,75.18,58.94,75.18s58.94-33.73,58.94-75.18-26.44-75.19-58.94-75.19S112.2,312.54,112.2,354Z" style="fill:#263238"></path><path d="M108,354c0-40,26-72.46,57.94-72.46S223.91,314,223.91,354s-26,72.46-57.94,72.46S108,394,108,354Zm4.68,0c0,37.37,23.89,67.78,53.26,67.78s53.26-30.41,53.26-67.78S195.34,286.22,166,286.22,112.71,316.62,112.71,354Z" style="fill:#c7c7c7"></path><path d="M158.79,354c0,6.54,4.21,11.84,9.4,11.84s9.39-5.3,9.39-11.84-4.2-11.85-9.39-11.85S158.79,347.45,158.79,354Z" style="fill:#c7c7c7"></path><path d="M155.78,354c0,6.54,4.21,11.84,9.4,11.84s9.39-5.3,9.39-11.84-4.2-11.85-9.39-11.85S155.78,347.45,155.78,354Z" style="fill:#dbdbdb"></path><ellipse cx="261.57" cy="422.57" rx="12.22" ry="15.41" style="fill:#c7c7c7"></ellipse><ellipse cx="257.65" cy="422.57" rx="12.22" ry="15.41" style="fill:#dbdbdb"></ellipse></g><g id="freepik--speech-bubble--inject-5"><rect x="122.93" y="56.43" width="57.63" height="38.11" style="fill:#FFC727"></rect><polygon points="145.08 94.54 158.41 94.54 151.75 102.66 145.08 94.54" style="fill:#FFC727"></polygon><g id="freepik--xsrjp0--inject-5"><path d="M149.06,84.66c-.53-.32-1-.8-1.7-.74-.27,0-.21-.19-.21-.34l0-8c0-.2,0-.35.22-.46,2-1,2.9-3.05,4.13-4.77a8,8,0,0,0,1.46-6c-.09-.6.19-.87.73-1a1.34,1.34,0,0,1,1.52.47,10.84,10.84,0,0,1,1.17,3.48,12.67,12.67,0,0,1-.36,3c-.09.73-.26,1.45-.4,2.19.18.13.39.06.58.06l6.73,0c.95,0,1.41.27,1.55.9a1.81,1.81,0,0,1-1,2c-.17.08-.47,0-.49.27s.29.24.44.35c.82.55.67,1.7-.27,2.37-.22.16-.66.09-.67.42s.41.26.59.45a1.52,1.52,0,0,1-.64,2.35,2.26,2.26,0,0,0-.39.15c-.12.07-.22.16,0,.31a1.32,1.32,0,0,1,0,2.37l-.29.21a1.87,1.87,0,0,1-1.18.26l-10.56,0A1.25,1.25,0,0,1,149.06,84.66Z" style="fill:#fff;fill-rule:evenodd"></path><path d="M139,80c0-1.69,0-3.38,0-5.06,0-.35,0-.52.45-.51,2.06,0,4.12,0,6.18,0,.4,0,.47.13.46.49q0,5.1,0,10.19c0,.44-.11.56-.55.55-2,0-4,0-6,0-.5,0-.57-.17-.56-.6C139.06,83.39,139,81.7,139,80Z" style="fill:#fff;fill-rule:evenodd"></path></g></g></svg>